<svg xmlns="http://www.w3.org/2000/svg" xmlns:xlink="http://www.w3.org/1999/xlink" width="500" zoomAndPan="magnify" viewBox="0 0 375 374.999991" height="500" preserveAspectRatio="xMidYMid meet" version="1.0"><path fill="#805ad5" d="M 187.484375 374.984375 C 84.101562 374.984375 -0.00390625 290.875 -0.00390625 187.496094 C -0.00390625 84.109375 84.101562 0.00390625 187.484375 0.00390625 C 290.867188 0.00390625 374.976562 84.109375 374.976562 187.496094 C 374.976562 290.875 290.867188 374.984375 187.484375 374.984375 " fill-opacity="1" fill-rule="nonzero"/><path fill="#ffffff" d="M 99.65625 239.183594 L 126.996094 126.28125 C 129.195312 117.203125 137.324219 110.808594 146.664062 110.808594 L 154.765625 110.808594 C 168.425781 110.808594 178.164062 124.070312 174.070312 137.105469 L 138.632812 250.003906 C 135.984375 258.441406 128.167969 264.179688 119.324219 264.179688 C 106.222656 264.179688 96.574219 251.917969 99.65625 239.183594 " fill-opacity="1" fill-rule="nonzero"/><path fill="#ffffff" d="M 200.535156 239.183594 L 227.871094 126.28125 C 230.070312 117.203125 238.199219 110.808594 247.539062 110.808594 L 255.640625 110.808594 C 269.304688 110.808594 279.039062 124.070312 274.945312 137.105469 L 239.507812 250.003906 C 236.859375 258.441406 229.042969 264.179688 220.203125 264.179688 C 207.097656 264.179688 197.449219 251.917969 200.535156 239.183594 " fill-opacity="1" fill-rule="nonzero"/></svg>